<svg width="42" height="48" viewBox="0 0 42 48" fill="none" xmlns="http://www.w3.org/2000/svg">
<path fill-rule="evenodd" clip-rule="evenodd" d="M8.4 9.07613C8.4 8.58037 8.17852 8.12991 7.84765 7.95412C6.46137 7.22213 5.6 5.79113 5.6 4.21875C5.6 1.89244 7.48403 0 9.8 0C11.1153 0 12.3703 0.630375 13.1607 1.68778L16.5212 6.18806C16.9833 6.80878 16.8575 7.69041 16.2395 8.15597C15.6216 8.61872 14.7466 8.49788 14.279 7.87444L10.9211 3.37556C10.6559 3.01847 10.2457 2.8125 9.8 2.8125C9.02888 2.8125 8.4 3.44287 8.4 4.21875C8.4 4.74337 8.68709 5.22122 9.14919 5.46572C10.4153 6.13312 11.2 7.51603 11.2 9.07613V10.3686C12.0219 10.8585 12.6 11.7203 12.6 12.75C12.6 14.3032 11.3464 15.5625 9.8 15.5625C8.25356 15.5625 7 14.3032 7 12.75C7 11.7203 7.57811 10.8585 8.4 10.3686V9.07613ZM9.8 24C11.3464 24 12.6 22.7408 12.6 21.1875C12.6 19.6342 11.3464 18.375 9.8 18.375C8.2536 18.375 7 19.6342 7 21.1875C7 22.7408 8.2536 24 9.8 24ZM9.8 39.4688C10.5711 39.4688 11.2 38.8384 11.2 38.0625C11.1864 37.6313 10.6067 36.4063 9.8 35.044C8.99332 36.4091 8.41092 37.6341 8.4 38.0639C8.4 38.8384 9.02888 39.4688 9.8 39.4688ZM9.8 48C15.2032 48 19.6 43.4898 19.6 38.0625C19.6 34.4996 15.6972 29.0117 13.0777 25.7269C12.1538 26.4021 11.0271 26.8125 9.8 26.8125C8.57295 26.8125 7.44623 26.4021 6.52232 25.7269C3.90283 29.0115 0 34.4996 0 38.0625C0 43.4898 4.39684 48 9.8 48ZM10.9512 31.6383C11.8671 32.9717 14 36.2648 14 38.0625C14 40.3888 12.116 42.2812 9.8 42.2812C7.48403 42.2812 5.6 40.3888 5.6 38.0625C5.6 36.2648 7.73285 32.9717 8.64883 31.6383C9.16832 30.8775 10.4317 30.8775 10.9512 31.6383ZM30.2477 7.95412C30.5785 8.12991 30.8 8.58037 30.8 9.07613V10.3686C29.9781 10.8585 29.4 11.7203 29.4 12.75C29.4 14.3032 30.6536 15.5625 32.2 15.5625C33.7464 15.5625 35 14.3032 35 12.75C35 11.7203 34.4219 10.8585 33.6 10.3686V9.07613C33.6 7.51603 32.8153 6.13312 31.5492 5.46572C31.0871 5.22122 30.8 4.74337 30.8 4.21875C30.8 3.44287 31.4289 2.8125 32.2 2.8125C32.6457 2.8125 33.0559 3.01847 33.3211 3.37556L36.679 7.87444C37.1466 8.49788 38.0216 8.61872 38.6395 8.15597C39.2575 7.69041 39.3833 6.80878 38.9212 6.18806L35.5607 1.68778C34.7703 0.630375 33.5153 0 32.2 0C29.884 0 28 1.89244 28 4.21875C28 5.79113 28.8614 7.22213 30.2477 7.95412ZM32.2 24C33.7464 24 35 22.7408 35 21.1875C35 19.6342 33.7464 18.375 32.2 18.375C30.6536 18.375 29.4 19.6342 29.4 21.1875C29.4 22.7408 30.6536 24 32.2 24ZM32.2 39.4688C32.9711 39.4688 33.6 38.8384 33.6 38.0625C33.5864 37.6313 33.0067 36.4063 32.2 35.044C31.3933 36.4091 30.8109 37.6341 30.8 38.0639C30.8 38.8384 31.4289 39.4688 32.2 39.4688ZM32.2 48C37.6032 48 42 43.4898 42 38.0625C42 34.4996 38.0972 29.0117 35.4777 25.7269C34.5538 26.4021 33.4271 26.8125 32.2 26.8125C30.9729 26.8125 29.8462 26.4021 28.9223 25.7269C26.3028 29.0115 22.4 34.4996 22.4 38.0625C22.4 43.4898 26.7968 48 32.2 48ZM33.3512 31.6383C34.2671 32.9717 36.4 36.2648 36.4 38.0625C36.4 40.3888 34.516 42.2812 32.2 42.2812C29.884 42.2812 28 40.3888 28 38.0625C28 36.2648 30.1329 32.9717 31.0488 31.6383C31.5683 30.8775 32.8317 30.8775 33.3512 31.6383Z" fill="white"/>
</svg>
