<svg width="48" height="48" viewBox="0 0 48 48" fill="none" xmlns="http://www.w3.org/2000/svg">
<path fill-rule="evenodd" clip-rule="evenodd" d="M23.8416 15.5315C21.5677 15.5315 19.3967 14.7887 17.5631 13.3836C15.9202 12.1244 14.6515 10.3815 13.9516 8.43769L15.6305 8.12728V0H32.2533V8.12578L34.0421 8.454C33.3416 10.3897 32.0774 12.1251 30.4409 13.3805C28.6065 14.7877 26.434 15.5315 24.1583 15.5315H23.8416ZM13.7594 41.6128C13.7594 40.7148 13.4267 39.8718 12.8423 39.2244C16.2972 40.8097 20.0839 41.6465 24 41.6465C27.9121 41.6465 31.6952 40.8115 35.1472 39.2293C34.5654 39.876 34.2344 40.7169 34.2344 41.6128C34.2344 43.5839 35.8415 45.1875 37.8167 45.1875H40.156V48H7.84401H7.83772V45.1875H7.84401H10.1771C12.1524 45.1875 13.7594 43.5839 13.7594 41.6128ZM32.1587 15.6102C30.1654 17.1393 27.854 18.0515 25.4115 18.284V20.7544L29.9025 25.2358L24.0023 31.1235L18.1021 25.2358L22.593 20.7544V18.2843C20.1511 18.0527 17.8397 17.1417 15.8464 15.6142C13.657 13.9363 11.996 11.5758 11.1524 8.955L0 11.0166V14.9787C0 21.3757 2.49642 27.3898 7.02938 31.9132C11.5624 36.4365 17.5893 38.9276 24 38.9276C30.4104 38.9276 36.4373 36.4366 40.9702 31.9133C45.5032 27.3901 47.9996 21.3761 47.9998 14.9793L48 11.0149L36.8432 8.96784C35.9988 11.5815 34.3422 13.9352 32.1587 15.6102ZM23.9969 23.325L22.0829 25.2348L23.9969 27.1447L25.9108 25.2348L23.9969 23.325Z" fill="white"/>
</svg>
