<svg width="48" height="43" viewBox="0 0 48 43" fill="none" xmlns="http://www.w3.org/2000/svg">
<path fill-rule="evenodd" clip-rule="evenodd" d="M4.44614 26.2992C4.44614 32.8278 9.58488 38.1808 16.0387 38.5451C17.3087 40.114 18.8137 41.4748 20.4895 42.5802C19.2698 42.8587 18.0169 43 16.7407 43C7.50979 43 0 35.508 0 26.2992C0 17.8076 6.38583 10.7758 14.6181 9.73202C11.4299 7.39095 10.2107 5.42894 10.2107 3.71765C10.2107 1.66443 11.8791 0 13.9373 0C15.0555 0 16.058 0.492069 16.7411 1.27021C17.4241 0.492069 18.4265 0 19.5449 0C21.603 0 23.2714 1.66443 23.2714 3.71765C23.2714 5.42866 22.0526 7.39039 18.8655 9.73099C20.4423 9.92922 21.9731 10.3494 23.4372 10.9883C26.0788 12.1388 28.3947 13.9682 30.1348 16.2792C32.3247 19.1864 33.4823 22.6513 33.4823 26.2991C33.4823 29.704 32.4734 32.9494 30.5582 35.7309C28.9668 35.6137 27.4398 35.1001 26.1097 34.2404C27.9851 32.0371 29.0362 29.2223 29.0362 26.2991C29.0362 22.8136 27.5424 19.4814 24.9386 17.1581C22.684 15.1428 19.7726 14.0329 16.7407 14.0329C9.96147 14.0329 4.44614 19.5356 4.44614 26.2992ZM27.5104 10.0182C28.7301 9.73979 29.983 9.59853 31.2593 9.59853C40.4901 9.59853 47.9999 17.0904 48 26.2991C48 35.508 40.4902 42.9999 31.2594 42.9999C28.9295 42.9999 26.6768 42.5324 24.5628 41.61C21.9212 40.4596 19.6053 38.6301 17.8653 36.3192C15.6752 33.4119 14.5177 29.9471 14.5177 26.2991C14.5177 22.8942 15.5265 19.6489 17.4418 16.8675C19.0332 16.9846 20.5602 17.4982 21.8903 18.3579C20.0149 20.5612 18.9638 23.3761 18.9638 26.2992C18.9638 29.7848 20.4576 33.1169 23.0614 35.4404C25.3161 37.4556 28.2276 38.5655 31.2594 38.5655C38.0386 38.5655 43.5539 33.0628 43.5539 26.2992C43.5539 19.7707 38.4151 14.4177 31.9613 14.0534C30.6912 12.4845 29.1862 11.1238 27.5104 10.0182Z" fill="white"/>
</svg>
